<?xml version="1.0" encoding="UTF-8" standalone="no"?>
<svg
   xmlns:dc="http://purl.org/dc/elements/1.1/"
   xmlns:cc="http://creativecommons.org/ns#"
   xmlns:rdf="http://www.w3.org/1999/02/22-rdf-syntax-ns#"
   xmlns:svg="http://www.w3.org/2000/svg"
   xmlns="http://www.w3.org/2000/svg"
   xmlns:sodipodi="http://sodipodi.sourceforge.net/DTD/sodipodi-0.dtd"
   xmlns:inkscape="http://www.inkscape.org/namespaces/inkscape"
   sodipodi:docname="qiskit-logo-and-wordmark.svg"
   inkscape:version="1.0beta1 (32d4812, 2019-09-19)"
   id="svg8"
   version="1.1"
   viewBox="0 0 40.000107 56.470398"
   height="56.470398mm"
   width="40.000107mm">
  <defs
     id="defs2">
    <style
       id="style28">.cls-1{fill:url(#linear-gradient);}.cls-2{fill:#fff;}.cls-3{fill:url(#linear-gradient-2);}.cls-4{fill:url(#linear-gradient-3);}.cls-5{fill:url(#linear-gradient-4);}</style>
    <linearGradient
       id="linear-gradient"
       x1="196.25"
       y1="386.09"
       x2="196.25"
       y2="352.45999"
       gradientUnits="userSpaceOnUse">
      <stop
         offset="0"
         stop-color="#fff"
         id="stop30" />
      <stop
         offset="0.14"
         stop-color="#fff"
         stop-opacity="0.99"
         id="stop32" />
      <stop
         offset="0.27"
         stop-color="#fff"
         stop-opacity="0.94"
         id="stop34" />
      <stop
         offset="0.39"
         stop-color="#fff"
         stop-opacity="0.87"
         id="stop36" />
      <stop
         offset="0.51"
         stop-color="#fff"
         stop-opacity="0.77"
         id="stop38" />
      <stop
         offset="0.63"
         stop-color="#fff"
         stop-opacity="0.64"
         id="stop40" />
      <stop
         offset="0.74"
         stop-color="#fff"
         stop-opacity="0.48"
         id="stop42" />
      <stop
         offset="0.85"
         stop-color="#fff"
         stop-opacity="0.29"
         id="stop44" />
      <stop
         offset="0.96"
         stop-color="#fff"
         stop-opacity="0.08"
         id="stop46" />
      <stop
         offset="1"
         stop-color="#fff"
         stop-opacity="0"
         id="stop48" />
    </linearGradient>
    <linearGradient
       id="linear-gradient-2"
       x1="198.64999"
       y1="334.82999"
       x2="198.64999"
       y2="237.11"
       gradientUnits="userSpaceOnUse">
      <stop
         offset="0"
         stop-color="#fff"
         id="stop51" />
      <stop
         offset="0.19"
         stop-color="#fff"
         stop-opacity="0.99"
         id="stop53" />
      <stop
         offset="0.32"
         stop-color="#fff"
         stop-opacity="0.95"
         id="stop55" />
      <stop
         offset="0.44"
         stop-color="#fff"
         stop-opacity="0.89"
         id="stop57" />
      <stop
         offset="0.54"
         stop-color="#fff"
         stop-opacity="0.8"
         id="stop59" />
      <stop
         offset="0.64"
         stop-color="#fff"
         stop-opacity="0.69"
         id="stop61" />
      <stop
         offset="0.74"
         stop-color="#fff"
         stop-opacity="0.55"
         id="stop63" />
      <stop
         offset="0.83"
         stop-color="#fff"
         stop-opacity="0.39"
         id="stop65" />
      <stop
         offset="0.92"
         stop-color="#fff"
         stop-opacity="0.21"
         id="stop67" />
      <stop
         offset="1"
         stop-color="#fff"
         stop-opacity="0"
         id="stop69" />
    </linearGradient>
    <linearGradient
       id="linear-gradient-3"
       x1="196.25"
       y1="251.52"
       x2="196.25"
       y2="140.98"
       gradientUnits="userSpaceOnUse">
      <stop
         offset="0"
         stop-color="#fff"
         id="stop72" />
      <stop
         offset="0.19"
         stop-color="#fff"
         stop-opacity="0.99"
         id="stop74" />
      <stop
         offset="0.33"
         stop-color="#fff"
         stop-opacity="0.95"
         id="stop76" />
      <stop
         offset="0.44"
         stop-color="#fff"
         stop-opacity="0.89"
         id="stop78" />
      <stop
         offset="0.55"
         stop-color="#fff"
         stop-opacity="0.81"
         id="stop80" />
      <stop
         offset="0.65"
         stop-color="#fff"
         stop-opacity="0.7"
         id="stop82" />
      <stop
         offset="0.74"
         stop-color="#fff"
         stop-opacity="0.56"
         id="stop84" />
      <stop
         offset="0.83"
         stop-color="#fff"
         stop-opacity="0.4"
         id="stop86" />
      <stop
         offset="0.92"
         stop-color="#fff"
         stop-opacity="0.22"
         id="stop88" />
      <stop
         offset="1"
         stop-color="#fff"
         stop-opacity="0.01"
         id="stop90" />
      <stop
         offset="1"
         stop-color="#fff"
         stop-opacity="0"
         id="stop92" />
    </linearGradient>
    <linearGradient
       id="linear-gradient-4"
       x1="198.64999"
       y1="155.39"
       x2="198.64999"
       y2="57.669998"
       gradientUnits="userSpaceOnUse">
      <stop
         offset="0"
         stop-color="#fff"
         id="stop95" />
      <stop
         offset="0.2"
         stop-color="#fff"
         stop-opacity="0.99"
         id="stop97" />
      <stop
         offset="0.34"
         stop-color="#fff"
         stop-opacity="0.95"
         id="stop99" />
      <stop
         offset="0.45"
         stop-color="#fff"
         stop-opacity="0.9"
         id="stop101" />
      <stop
         offset="0.56"
         stop-color="#fff"
         stop-opacity="0.81"
         id="stop103" />
      <stop
         offset="0.65"
         stop-color="#fff"
         stop-opacity="0.7"
         id="stop105" />
      <stop
         offset="0.74"
         stop-color="#fff"
         stop-opacity="0.57"
         id="stop107" />
      <stop
         offset="0.83"
         stop-color="#fff"
         stop-opacity="0.41"
         id="stop109" />
      <stop
         offset="0.91"
         stop-color="#fff"
         stop-opacity="0.23"
         id="stop111" />
      <stop
         offset="0.99"
         stop-color="#fff"
         stop-opacity="0.03"
         id="stop113" />
      <stop
         offset="1"
         stop-color="#fff"
         stop-opacity="0"
         id="stop115" />
    </linearGradient>
  </defs>
  <sodipodi:namedview
     inkscape:window-maximized="1"
     inkscape:window-y="23"
     inkscape:window-x="0"
     inkscape:window-height="1005"
     inkscape:window-width="1680"
     fit-margin-bottom="0"
     fit-margin-right="0"
     fit-margin-left="0"
     fit-margin-top="0"
     showgrid="false"
     inkscape:document-rotation="0"
     inkscape:current-layer="layer1"
     inkscape:document-units="mm"
     inkscape:cy="106.45206"
     inkscape:cx="71.964468"
     inkscape:zoom="2.6822115"
     inkscape:pageshadow="2"
     inkscape:pageopacity="0.0"
     borderopacity="1.0"
     bordercolor="#666666"
     pagecolor="#ffffff"
     id="base" />
  <metadata
     id="metadata5">
    <rdf:RDF>
      <cc:Work
         rdf:about="">
        <dc:format>image/svg+xml</dc:format>
        <dc:type
           rdf:resource="http://purl.org/dc/dcmitype/StillImage" />
        <dc:title></dc:title>
      </cc:Work>
    </rdf:RDF>
  </metadata>
  <g
     transform="translate(-54.664758,-109.79587)"
     id="layer1"
     inkscape:groupmode="layer"
     inkscape:label="Layer 1">
    <g
       transform="matrix(0.10191083,0,0,0.10191083,54.66481,109.79587)"
       style="opacity:1;stop-opacity:1"
       data-name="Layer 5"
       id="Layer_5">
      <path
         inkscape:connector-curvature="0"
         style="fill:url(#linear-gradient)"
         id="path122"
         d="m 196.25,386.09 c -23.53,0 -48.86,-5.26 -48.86,-16.82 0,-11.56 25.33,-16.81 48.86,-16.81 23.53,0 48.86,5.26 48.86,16.81 0,11.55 -25.33,16.82 -48.86,16.82 z m 0,-25.63 c -26.79,0 -40.26,6.42 -40.86,8.86 0.6,2.35 14.07,8.77 40.86,8.77 26.64,0 40.1,-6.34 40.85,-8.82 -0.75,-2.47 -14.22,-8.81 -40.85,-8.81 z"
         class="cls-1" />
      <rect
         id="rect124"
         transform="rotate(-33.6,201.59331,194.45899)"
         height="307.03"
         width="8"
         y="40.950001"
         x="197.62"
         class="cls-2" />
      <path
         inkscape:connector-curvature="0"
         style="fill:url(#linear-gradient-2)"
         id="path126"
         d="m 198.65,334.83 c -43.78,0 -85,-4.72 -116,-13.29 C 40.81,310 32,295.83 32,286 c 0,-9.83 8.77,-24.05 50.57,-35.58 31.05,-8.56 72.26,-13.28 116,-13.28 43.74,0 85,4.72 116,13.28 41.79,11.53 50.56,25.71 50.56,35.58 0,9.87 -8.77,24 -50.56,35.57 -30.92,8.54 -72.13,13.26 -115.92,13.26 z m 0,-89.72 c -43.08,0 -83.54,4.61 -113.92,13 C 56.75,265.82 40,276.24 40,286 c 0,9.76 16.71,20.14 44.69,27.86 30.38,8.38 70.84,13 113.92,13 43.08,0 83.55,-4.62 113.92,-13 28,-7.72 44.69,-18.14 44.69,-27.86 0,-9.72 -16.7,-20.15 -44.69,-27.87 -30.33,-8.41 -70.79,-13.02 -113.88,-13.02 z"
         class="cls-3" />
      <rect
         id="rect128"
         transform="rotate(-33.41,144.38241,108.6198)"
         height="100.69"
         width="8"
         y="58.27"
         x="140.39"
         class="cls-2" />
      <path
         inkscape:connector-curvature="0"
         style="fill:url(#linear-gradient-3)"
         id="path130"
         d="m 196.25,251.52 c -50,0 -97,-5.39 -132.47,-15.16 -47.42,-13.08 -57.37,-29 -57.37,-40.11 0,-11.11 10,-27 57.37,-40.11 35.43,-9.77 82.48,-15.14 132.47,-15.14 49.99,0 97,5.39 132.47,15.16 47.42,13.08 57.37,29 57.37,40.11 0,11.11 -9.95,27 -57.37,40.11 -35.43,9.75 -82.48,15.14 -132.47,15.14 z m 0,-102.54 c -49.29,0 -95.58,5.28 -130.35,14.87 -32.24,8.9 -51.49,21 -51.49,32.4 0,11.4 19.25,23.5 51.49,32.4 34.77,9.59 81.06,14.87 130.35,14.87 49.29,0 95.58,-5.28 130.35,-14.87 32.24,-8.9 51.49,-21 51.49,-32.4 0,-11.4 -19.25,-23.5 -51.49,-32.4 C 291.83,154.26 245.54,149 196.25,149 Z"
         class="cls-4" />
      <path
         inkscape:connector-curvature="0"
         style="fill:url(#linear-gradient-4)"
         id="path132"
         d="m 198.65,155.39 c -43.78,0 -85,-4.72 -116,-13.28 C 40.81,130.58 32,116.4 32,106.53 c 0,-9.87 8.77,-24 50.57,-35.57 31.05,-8.57 72.26,-13.29 116,-13.29 43.74,0 85,4.72 116,13.29 41.79,11.53 50.56,25.71 50.56,35.57 0,9.86 -8.77,24.05 -50.56,35.58 -30.92,8.56 -72.13,13.28 -115.92,13.28 z m 0,-89.72 c -43.08,0 -83.54,4.62 -113.92,13 C 56.75,86.39 40,96.81 40,106.53 c 0,9.72 16.71,20.15 44.69,27.87 30.38,8.38 70.84,13 113.92,13 43.08,0 83.55,-4.61 113.92,-13 28,-7.72 44.69,-18.14 44.69,-27.87 0,-9.73 -16.7,-20.14 -44.69,-27.86 -30.33,-8.38 -70.79,-13 -113.88,-13 z"
         class="cls-5" />
      <path
         inkscape:connector-curvature="0"
         id="path134"
         d="m 196.25,40 c -23.53,0 -48.86,-5.26 -48.86,-16.81 0,-11.55 25.33,-16.78 48.86,-16.78 23.53,0 48.86,5.26 48.86,16.82 0,11.56 -25.33,16.77 -48.86,16.77 z m 0,-25.63 c -26.79,0 -40.26,6.42 -40.86,8.86 0.61,2.39 14.07,8.77 40.86,8.77 26.63,0 40.1,-6.34 40.85,-8.81 -0.75,-2.44 -14.21,-8.78 -40.85,-8.78 z"
         class="cls-2" />
      <path
         inkscape:connector-curvature="0"
         id="path136"
         d="M 196.25,392.5 C 88,392.5 0,304.46 0,196.25 0,88.04 88,0 196.25,0 304.5,0 392.5,88 392.5,196.25 392.5,304.5 304.46,392.5 196.25,392.5 Z M 196.25,8 C 92.45,8 8,92.45 8,196.25 8,300.05 92.45,384.5 196.25,384.5 300.05,384.5 384.5,300.05 384.5,196.25 384.5,92.45 300.05,8 196.25,8 Z"
         class="cls-2" />
      <circle
         id="circle138"
         r="19.23"
         cy="320.88"
         cx="286.67001"
         class="cls-2" />
      <circle
         id="circle140"
         r="19.219999"
         cy="67.040001"
         cx="115.77"
         class="cls-2" />
    </g>
    <text
       id="text250"
       y="164.37471"
       x="54.01886"
       style="font-style:normal;font-weight:normal;font-size:11.5339px;line-height:1.25;font-family:sans-serif;fill:#000000;fill-opacity:1;stroke:none;stroke-width:0.288347"
       xml:space="preserve"><tspan
         style="font-style:normal;font-variant:normal;font-weight:normal;font-stretch:normal;font-family:'IBM Plex Mono';-inkscape-font-specification:'IBM Plex Mono';fill:#ffffff;fill-opacity:1;stroke-width:0.288347"
         y="164.37471"
         x="54.01886"
         id="tspan248"
         sodipodi:role="line">Qiskit</tspan></text>
  </g>
</svg>
