<svg xmlns="http://www.w3.org/2000/svg" xmlns:xlink="http://www.w3.org/1999/xlink" viewBox="0 0 392.5 392.5"><defs><style>.cls-1{fill:url(#linear-gradient);}.cls-2{fill:url(#linear-gradient-2);}.cls-3{fill:url(#linear-gradient-3);}.cls-4{fill:url(#linear-gradient-4);}</style><linearGradient id="linear-gradient" x1="196.25" y1="386.09" x2="196.25" y2="352.46" gradientUnits="userSpaceOnUse"><stop offset="0"/><stop offset="0.94" stop-opacity="0.12"/><stop offset="1" stop-opacity="0"/></linearGradient><linearGradient id="linear-gradient-2" x1="198.65" y1="334.83" x2="198.65" y2="237.11" gradientUnits="userSpaceOnUse"><stop offset="0"/><stop offset="0.88" stop-opacity="0.28"/><stop offset="1" stop-opacity="0"/></linearGradient><linearGradient id="linear-gradient-3" x1="196.25" y1="251.52" x2="196.25" y2="140.98" gradientUnits="userSpaceOnUse"><stop offset="0"/><stop offset="0.88" stop-opacity="0.3"/><stop offset="1" stop-opacity="0"/></linearGradient><linearGradient id="linear-gradient-4" x1="198.65" y1="155.39" x2="198.65" y2="57.67" gradientUnits="userSpaceOnUse"><stop offset="0"/><stop offset="0.87" stop-opacity="0.32"/><stop offset="1" stop-opacity="0"/></linearGradient></defs><title>sAsset 6</title><g id="Layer_2" data-name="Layer 2"><g id="Logo"><g id="Layer_4" data-name="Layer 4"><g id="Layer_5" data-name="Layer 5"><path class="cls-1" d="M196.25,386.09c-23.53,0-48.86-5.26-48.86-16.82s25.33-16.81,48.86-16.81,48.86,5.26,48.86,16.81S219.78,386.09,196.25,386.09Zm0-25.63c-26.79,0-40.26,6.42-40.86,8.86.6,2.35,14.07,8.77,40.86,8.77,26.64,0,40.1-6.34,40.85-8.82C236.35,366.8,222.88,360.46,196.25,360.46Z"/><rect x="197.62" y="40.95" width="8" height="307.03" transform="translate(-73.93 144.05) rotate(-33.6)"/><path class="cls-2" d="M198.65,334.83c-43.78,0-85-4.72-116-13.29C40.81,310,32,295.83,32,286s8.77-24.05,50.57-35.58c31.05-8.56,72.26-13.28,116-13.28s85,4.72,116,13.28c41.79,11.53,50.56,25.71,50.56,35.58s-8.77,24-50.56,35.57C283.65,330.11,242.44,334.83,198.65,334.83Zm0-89.72c-43.08,0-83.54,4.61-113.92,13C56.75,265.82,40,276.24,40,286s16.71,20.14,44.69,27.86c30.38,8.38,70.84,13,113.92,13s83.55-4.62,113.92-13c28-7.72,44.69-18.14,44.69-27.86s-16.7-20.15-44.69-27.87C282.2,249.72,241.74,245.11,198.65,245.11Z"/><path class="cls-3" d="M196.25,251.52c-50,0-97-5.39-132.47-15.16-47.42-13.08-57.37-29-57.37-40.11s10-27,57.37-40.11C99.21,146.37,146.26,141,196.25,141s97,5.39,132.47,15.16c47.42,13.08,57.37,29,57.37,40.11s-9.95,27-57.37,40.11C293.29,246.13,246.24,251.52,196.25,251.52Zm0-102.54c-49.29,0-95.58,5.28-130.35,14.87-32.24,8.9-51.49,21-51.49,32.4s19.25,23.5,51.49,32.4c34.77,9.59,81.06,14.87,130.35,14.87s95.58-5.28,130.35-14.87c32.24-8.9,51.49-21,51.49-32.4s-19.25-23.5-51.49-32.4C291.83,154.26,245.54,149,196.25,149Z"/><rect x="140.39" y="58.27" width="8" height="100.69" transform="translate(-35.95 97.45) rotate(-33.41)"/><path class="cls-4" d="M198.65,155.39c-43.78,0-85-4.72-116-13.28C40.81,130.58,32,116.4,32,106.53s8.77-24,50.57-35.57c31.05-8.57,72.26-13.29,116-13.29s85,4.72,116,13.29c41.79,11.53,50.56,25.71,50.56,35.57s-8.77,24.05-50.56,35.58C283.65,150.67,242.44,155.39,198.65,155.39Zm0-89.72c-43.08,0-83.54,4.62-113.92,13C56.75,86.39,40,96.81,40,106.53s16.71,20.15,44.69,27.87c30.38,8.38,70.84,13,113.92,13s83.55-4.61,113.92-13c28-7.72,44.69-18.14,44.69-27.87s-16.7-20.14-44.69-27.86C282.2,70.29,241.74,65.67,198.65,65.67Z"/><path d="M196.25,40c-23.53,0-48.86-5.26-48.86-16.81S172.72,6.41,196.25,6.41s48.86,5.26,48.86,16.82S219.78,40,196.25,40Zm0-25.63c-26.79,0-40.26,6.42-40.86,8.86C156,25.62,169.46,32,196.25,32c26.63,0,40.1-6.34,40.85-8.81C236.35,20.75,222.89,14.41,196.25,14.41Z"/><path d="M196.25,392.5C88,392.5,0,304.46,0,196.25S88,0,196.25,0,392.5,88,392.5,196.25,304.46,392.5,196.25,392.5Zm0-384.5C92.45,8,8,92.45,8,196.25S92.45,384.5,196.25,384.5,384.5,300.05,384.5,196.25,300.05,8,196.25,8Z"/><circle cx="286.67" cy="320.88" r="19.23"/><circle cx="115.77" cy="67.04" r="19.22"/></g></g></g></g></svg>
